<svg xmlns="http://www.w3.org/2000/svg" viewBox="495.85 -4.00 228.90 228.90" xmlns:c2pa="http://c2pa.org/manifest"><metadata><c2pa:manifest>AAAWgmp1bWIAAAAeanVtZGMycGEAEQAQgAAAqgA4m3EDYzJwYQAAABZcanVtYgAAAEdqdW1kYzJtYQARABCAAACqADibcQN1cm46YzJwYTpjMjk1ZTVlYi0wMDk4LTRjZjEtOTg0Zi0zNWI2NmQ4ZmQzMWMAAAADl2p1bWIAAAApanVtZGMyYXMAEQAQgAAAqgA4m3EDYzJwYS5hc3NlcnRpb25zAAAAALxqdW1iAAAARGp1bWRjYm9yABEAEIAAAKoAOJtxE2MycGEuaW5ncmVkaWVudC52MwAAAAAYYzJzaLwE4QaD1wHs/T+H0ID3J1wAAABwY2JvcqNpZGM6Zm9ybWF0bWltYWdlL3N2Zyt4bWxqaW5zdGFuY2VJRHgseG1wOmlpZDo4ZmVjYTk4Zi05NWQ0LTRhZDQtOTZhNi05NzlkOTRmMTViMGFscmVsYXRpb25zaGlwaHBhcmVudE9mAAAB4mp1bWIAAABBanVtZGNib3IAEQAQgAAAqgA4m3ETYzJwYS5hY3Rpb25zLnYyAAAAABhjMnNolvk+InYIjZEqok9FTybGiAAAAZljYm9yomdhY3Rpb25zgqJmYWN0aW9ua2MycGEub3BlbmVkanBhcmFtZXRlcnOha2luZ3JlZGllbnRzgaJjdXJseC1zZWxmI2p1bWJmPWMycGEuYXNzZXJ0aW9ucy9jMnBhLmluZ3JlZGllbnQudjNkaGFzaFgg+4nwX+Haubm7JVtSRBt/9X1YiYbEtA7w1Sj0OGnHeB+kZmFjdGlvbngdY29tLmFudGhyb3BpYy5jbGF1ZGUucHJvdmlkZWRqcGFyYW1ldGVyc6F4H2NvbS5hbnRocm9waWMub3JpZ2luLWNvbmZpZGVuY2VndW5rbm93bmtkZXNjcmlwdGlvbnhmQ2xhdWRlIHByb3ZpZGVkIHRoaXMgZmlsZSBhdCB0aGUgcmVxdWVzdCBvZiBhIHVzZXIgYW5kIG1heSBoYXZlIGNyZWF0ZWQgb3IgbW9kaWZpZWQgdGhlIGZpbGUgY29udGVudHMubXNvZnR3YXJlQWdlbnShZG5hbWVmQ2xhdWRlcmFsbEFjdGlvbnNJbmNsdWRlZPUAAADIanVtYgAAAEBqdW1kY2JvcgARABCAAACqADibcRNjMnBhLmhhc2guZGF0YQAAAAAYYzJzaPADTvDPjzbfDTMot2z1HXQAAACAY2JvcqVjYWxnZnNoYTI1NmNwYWRNAAAAAAAAAAAAAAAAAGRoYXNoWCCpCJ7sd20M/cMk/9sxotJSUwcQI+qOQmQvTn/6bOPxGGRuYW1lbmp1bWJmIG1hbmlmZXN0amV4Y2x1c2lvbnOBomVzdGFydBiMZmxlbmd0aBkeBAAAAj5qdW1iAAAAJ2p1bWRjMmNsABEAEIAAAKoAOJtxA2MycGEuY2xhaW0udjIAAAACD2Nib3KlY2FsZ2ZzaGEyNTZpc2lnbmF0dXJleE1zZWxmI2p1bWJmPS9jMnBhL3VybjpjMnBhOmMyOTVlNWViLTAwOTgtNGNmMS05ODRmLTM1YjY2ZDhmZDMxYy9jMnBhLnNpZ25hdHVyZWppbnN0YW5jZUlEeCx4bXA6aWlkOmE0MmRiMjdiLThlNWQtNDM5NC05NmQxLTdjYzAzZWUzZTI1MnJjcmVhdGVkX2Fzc2VydGlvbnODomN1cmx4LXNlbGYjanVtYmY9YzJwYS5hc3NlcnRpb25zL2MycGEuaW5ncmVkaWVudC52M2RoYXNoWCD7ifBf4dq5ubslW1JEG3/1fViJhsS0DvDVKPQ4acd4H6JjdXJseCpzZWxmI2p1bWJmPWMycGEuYXNzZXJ0aW9ucy9jMnBhLmFjdGlvbnMudjJkaGFzaFgg2GgXrhSziWtGOGGTrAPGuvrlGhzjLhblGJ5PU3GLNYCiY3VybHgpc2VsZiNqdW1iZj1jMnBhLmFzc2VydGlvbnMvYzJwYS5oYXNoLmRhdGFkaGFzaFggTa3ZP7f6x3WjYjVLg/ut+UFlAzL74yQyy9pPjESloNl0Y2xhaW1fZ2VuZXJhdG9yX2luZm+jZG5hbWVvQW50aHJvcGljIEZpbGVzZ3ZlcnNpb25lMS4wLjBrc3BlY1ZlcnNpb25lMi40LjAAABA4anVtYgAAAChqdW1kYzJjcwARABCAAACqADibcQNjMnBhLnNpZ25hdHVyZQAAABAIY2JvctKEWQISogEmGCFZAgowggIGMIIBjaADAgECAhRA5aAK7sI50L64g/oGQgU9Z1UTADAKBggqhkjOPQQDAzBJMRcwFQYDVQQKEw5BbnRocm9waWMsIFBCQzEuMCwGA1UEAxMlQW50aHJvcGljIENvbnRlbnQgQ3JlZGVudGlhbHMgUm9vdCBDQTAeFw0yNjA4MDcxODQzNTZaFw0yODA4MDYxOTQzNTZaMEQxFzAVBgNVBAoTDkFudGhyb3BpYywgUEJDMSkwJwYDVQQDEyBBbnRocm9waWMgQ2xhdWRlIENvbnRlbnQgU2lnbmluZzBZMBMGByqGSM49AgEGCCqGSM49AwEHA0IABJh6CmvLUBgFFNU0vUKlOVtE6djd17L5SuwX0LemFisBM3dkd/3cyjxFA3Qo5S46fX0/ihY0VZ7mfb9KF703t5OjWDBWMA4GA1UdDwEB/wQEAwIHgDAVBgNVHSUEDjAMBgorBgEEAYPoXgIBMAwGA1UdEwEB/wQCMAAwHwYDVR0jBBgwFoAUzlHiBIFOZFsj+OPEz5o+nMHXXMIwCgYIKoZIzj0EAwMDZwAwZAIwMXMdFJ4BetLLVY7ORuE9noqbbAZOZn/aArXyTwFAZfKrPzxF2vPoJNf1+UCdg1XGAjBwX1zd9WGqYkqmL5SFqw1QySjr1zJfpJM9+1rdDwSPLMOPOjKuiXjoU/pUUeG9RwmhY3BhZFkNngAAAAAAAAAAAAAAAAAAAAAAAAAAAAAAAAAAAAAAAAAAAAAAAAAAAAAAAAAAAAAAAAAAAAAAAAAAAAAAAAAAAAAAAAAAAAAAAAAAAAAAAAAAAAAAAAAAAAAAAAAAAAAAAAAAAAAAAAAAAAAAAAAAAAAAAAAAAAAAAAAAAAAAAAAAAAAAAAAAAAAAAAAAAAAAAAAAAAAAAAAAAAAAAAAAAAAAAAAAAAAAAAAAAAAAAAAAAAAAAAAAAAAAAAAAAAAAAAAAAAAAAAAAAAAAAAAAAAAAAAAAAAAAAAAAAAAAAAAAAAAAAAAAAAAAAAAAAAAAAAAAAAAAAAAAAAAAAAAAAAAAAAAAAAAAAAAAAAAAAAAAAAAAAAAAAAAAAAAAAAAAAAAAAAAAAAAAAAAAAAAAAAAAAAAAAAAAAAAAAAAAAAAAAAAAAAAAAAAAAAAAAAAAAAAAAAAAAAAAAAAAAAAAAAAAAAAAAAAAAAAAAAAAAAAAAAAAAAAAAAAAAAAAAAAAAAAAAAAAAAAAAAAAAAAAAAAAAAAAAAAAAAAAAAAAAAAAAAAAAAAAAAAAAAAAAAAAAAAAAAAAAAAAAAAAAAAAAAAAAAAAAAAAAAAAAAAAAAAAAAAAAAAAAAAAAAAAAAAAAAAAAAAAAAAAAAAAAAAAAAAAAAAAAAAAAAAAAAAAAAAAAAAAAAAAAAAAAAAAAAAAAAAAAAAAAAAAAAAAAAAAAAAAAAAAAAAAAAAAAAAAAAAAAAAAAAAAAAAAAAAAAAAAAAAAAAAAAAAAAAAAAAAAAAAAAAAAAAAAAAAAAAAAAAAAAAAAAAAAAAAAAAAAAAAAAAAAAAAAAAAAAAAAAAAAAAAAAAAAAAAAAAAAAAAAAAAAAAAAAAAAAAAAAAAAAAAAAAAAAAAAAAAAAAAAAAAAAAAAAAAAAAAAAAAAAAAAAAAAAAAAAAAAAAAAAAAAAAAAAAAAAAAAAAAAAAAAAAAAAAAAAAAAAAAAAAAAAAAAAAAAAAAAAAAAAAAAAAAAAAAAAAAAAAAAAAAAAAAAAAAAAAAAAAAAAAAAAAAAAAAAAAAAAAAAAAAAAAAAAAAAAAAAAAAAAAAAAAAAAAAAAAAAAAAAAAAAAAAAAAAAAAAAAAAAAAAAAAAAAAAAAAAAAAAAAAAAAAAAAAAAAAAAAAAAAAAAAAAAAAAAAAAAAAAAAAAAAAAAAAAAAAAAAAAAAAAAAAAAAAAAAAAAAAAAAAAAAAAAAAAAAAAAAAAAAAAAAAAAAAAAAAAAAAAAAAAAAAAAAAAAAAAAAAAAAAAAAAAAAAAAAAAAAAAAAAAAAAAAAAAAAAAAAAAAAAAAAAAAAAAAAAAAAAAAAAAAAAAAAAAAAAAAAAAAAAAAAAAAAAAAAAAAAAAAAAAAAAAAAAAAAAAAAAAAAAAAAAAAAAAAAAAAAAAAAAAAAAAAAAAAAAAAAAAAAAAAAAAAAAAAAAAAAAAAAAAAAAAAAAAAAAAAAAAAAAAAAAAAAAAAAAAAAAAAAAAAAAAAAAAAAAAAAAAAAAAAAAAAAAAAAAAAAAAAAAAAAAAAAAAAAAAAAAAAAAAAAAAAAAAAAAAAAAAAAAAAAAAAAAAAAAAAAAAAAAAAAAAAAAAAAAAAAAAAAAAAAAAAAAAAAAAAAAAAAAAAAAAAAAAAAAAAAAAAAAAAAAAAAAAAAAAAAAAAAAAAAAAAAAAAAAAAAAAAAAAAAAAAAAAAAAAAAAAAAAAAAAAAAAAAAAAAAAAAAAAAAAAAAAAAAAAAAAAAAAAAAAAAAAAAAAAAAAAAAAAAAAAAAAAAAAAAAAAAAAAAAAAAAAAAAAAAAAAAAAAAAAAAAAAAAAAAAAAAAAAAAAAAAAAAAAAAAAAAAAAAAAAAAAAAAAAAAAAAAAAAAAAAAAAAAAAAAAAAAAAAAAAAAAAAAAAAAAAAAAAAAAAAAAAAAAAAAAAAAAAAAAAAAAAAAAAAAAAAAAAAAAAAAAAAAAAAAAAAAAAAAAAAAAAAAAAAAAAAAAAAAAAAAAAAAAAAAAAAAAAAAAAAAAAAAAAAAAAAAAAAAAAAAAAAAAAAAAAAAAAAAAAAAAAAAAAAAAAAAAAAAAAAAAAAAAAAAAAAAAAAAAAAAAAAAAAAAAAAAAAAAAAAAAAAAAAAAAAAAAAAAAAAAAAAAAAAAAAAAAAAAAAAAAAAAAAAAAAAAAAAAAAAAAAAAAAAAAAAAAAAAAAAAAAAAAAAAAAAAAAAAAAAAAAAAAAAAAAAAAAAAAAAAAAAAAAAAAAAAAAAAAAAAAAAAAAAAAAAAAAAAAAAAAAAAAAAAAAAAAAAAAAAAAAAAAAAAAAAAAAAAAAAAAAAAAAAAAAAAAAAAAAAAAAAAAAAAAAAAAAAAAAAAAAAAAAAAAAAAAAAAAAAAAAAAAAAAAAAAAAAAAAAAAAAAAAAAAAAAAAAAAAAAAAAAAAAAAAAAAAAAAAAAAAAAAAAAAAAAAAAAAAAAAAAAAAAAAAAAAAAAAAAAAAAAAAAAAAAAAAAAAAAAAAAAAAAAAAAAAAAAAAAAAAAAAAAAAAAAAAAAAAAAAAAAAAAAAAAAAAAAAAAAAAAAAAAAAAAAAAAAAAAAAAAAAAAAAAAAAAAAAAAAAAAAAAAAAAAAAAAAAAAAAAAAAAAAAAAAAAAAAAAAAAAAAAAAAAAAAAAAAAAAAAAAAAAAAAAAAAAAAAAAAAAAAAAAAAAAAAAAAAAAAAAAAAAAAAAAAAAAAAAAAAAAAAAAAAAAAAAAAAAAAAAAAAAAAAAAAAAAAAAAAAAAAAAAAAAAAAAAAAAAAAAAAAAAAAAAAAAAAAAAAAAAAAAAAAAAAAAAAAAAAAAAAAAAAAAAAAAAAAAAAAAAAAAAAAAAAAAAAAAAAAAAAAAAAAAAAAAAAAAAAAAAAAAAAAAAAAAAAAAAAAAAAAAAAAAAAAAAAAAAAAAAAAAAAAAAAAAAAAAAAAAAAAAAAAAAAAAAAAAAAAAAAAAAAAAAAAAAAAAAAAAAAAAAAAAAAAAAAAAAAAAAAAAAAAAAAAAAAAAAAAAAAAAAAAAAAAAAAAAAAAAAAAAAAAAAAAAAAAAAAAAAAAAAAAAAAAAAAAAAAAAAAAAAAAAAAAAAAAAAAAAAAAAAAAAAAAAAAAAAAAAAAAAAAAAAAAAAAAAAAAAAAAAAAAAAAAAAAAAAAAAAAAAAAAAAAAAAAAAAAAAAAAAAAAAAAAAAAAAAAAAAAAAAAAAAAAAAAAAAAAAAAAAAAAAAAAAAAAAAAAAAAAAAAAAAAAAAAAAAAAAAAAAAAAAAAAAAAAAAAAAAAAAAAAAAAAAAAAAAAAAAAAAAAAAAAAAAAAAAAAAAAAAAAAAAAAAAAAAAAAAAAAAAAAAAAAAAAAAAAAAAAAAAAAAAAAAAAAAAAAAAAAAAAAAAAAAAAAAAAAAAAAAAAAAAAAAAAAAAAAAAAAAAAAAAAAAAAAAAAAAAAAAAAAAAAAAAAAAAAAAAAAAAAAAAAAAAAAAAAAAAAAAAAAAAAAAAAAAAAAAAAAAAAAAAAAAAAAAAAAAAAAAAAAAAAAAAAAAAAAAAAAAAAAAAAAAAAAAAAAAAAAAAAAAAAAAAAAAAAAAAAAAAAAAAAAAAAAAAAAAAAAAAAAAAAAAAAAAAAAAAAAAAAAAAAAAAAAAAAAAAAAAAAAAAAAAAAAAAAAAAAAAAAAAAAAAAAAAAAAAAAAAAAAAAAAAAAAAAAAAAAAAAAAAAAAAAAAAAAAAAAAAAAAAAAAAAAAAAAAAAAAAAAAAAAAAAAAAAAAAAAAAAAAAAAAAAAAAAAAAAAAAAAAAAAAAAAAAAAAAAAAAAAAAAAAAAAAAAAAAAAAAAAAAAAAAAAAAAAAAAAAAAAAAAAAAAAAAAAAAAAAAAAAAAAAAAAAAAAAAAAAAAAAAAAAAAAAAAAAAAAAAAAAAAAAAAAAAAAAAAAAAAAAAAAAAAAAAAAAAAAAAAAAAAAAAAAAAAAAAAAAAAAAAAAAAAAAAAAAAAAAAAAAAAAAAAAAAAAAAAAAAAAAAAAAAAAAAAAAAAAAAAAAAAAAAAAAAAAAAAAAAAAAAAAAAAAAAAAAAAAAAAAAAAAAAAAAAAAAAAAAAAAAAAAAAAAAAAAAAAAAAAAAAAAAAAAAAAAAAAAAAAAAAAAAAAAAAAAAAAAAAAAAAAAAAAAAAAAAAAAAAAAAAAAAAAAAAAAAAAAAAAAAAAAAAAAAAAAAAAAAAAAAAAAAAAAAAAAAAAAAAAAAAAAAAAAAAAAAAAAAAAAAAAAAAAAAAAAAAAAAAAAAAAAAAAAAAAAAAAAAAAAAAAAAAAAAAAAAAAAAAAAAAAAAAAAAAAAAAAAAAAAAAAAAAAAAAAAAAAAAAAAAAAAAAAAAAAAAAAAAAAAAAAAAAAAAAAAAAAAAAAAAAAAAAAAAAAAAAAAAAAAAAAAAAAAAAAAAAAAAAAAAAAAAAAAAAAAAAAAAAAAAAAAAAAAAAAAAAAAAAAAAAAAAAAAAAAAAAAAAAAAAAAAAAAAAAAAAAAAAAAAAAAAAAAAAAAAAAAAAAAAAAAAAAAAAAAAAAAAAAAAAAAAAAAAAAAAAAAAAAAAAAAAAAAAAAAAAAAAAAAAAAAAAAAAAAAAAAAAAAAAAAAAAAAAAAAAAAAAAAAPZYQOS5uAwyOR/7XIuDHdlzWl+zsqDfi4n5UJ1UxLRViGK0PYjImORNYQ9g3Gdof/6ZWBda4nEUMwsxVeDgnkEkhjw=</c2pa:manifest></metadata>
<style>
  #favicon-light { display: inline; }
  #favicon-dark { display: none; }
  @media (prefers-color-scheme: dark) {
    #favicon-light { display: none; }
    #favicon-dark { display: inline; }
  }
</style>
<g id="favicon-light"><path fill-rule="evenodd" clip-rule="evenodd" d="M 604.97,90.6017 C 613.331,90.4161 640.707,78.0698 649.709,73.6188 C 652.741,72.1207 654.728,70.7471 657.993,69.1369 C 660.928,67.6898 662.852,66.3856 665.633,64.7186 C 667.971,63.3166 671.52,60.7843 673.846,60.1648 C 674.174,61.5668 682.683,80.9482 686.494,96.3969 C 689.076,106.86 693.017,128.493 693.017,139.442 C 690.896,139.934 672.735,152.908 669.161,155.298 C 642.211,173.315 624.764,173.517 622.012,174.833 C 622.012,167.055 617.85,137.118 616.413,130.158 L 608.254,100.07 C 607.656,98.2654 607.268,97.0281 606.596,95.3519 C 605.944,93.7258 605.516,91.8181 604.97,90.6017 M 570.888,82.8158 C 570.888,86.511 571.258,88.4347 573.996,91.7487 C 578.58,97.2956 576.689,90.2689 582.049,103.541 C 585.269,111.511 592.189,136.588 592.189,143.689 C 592.189,144.79 588.786,146.684 587.901,147.199 C 578.39,152.733 579.252,151.684 571.597,155.722 C 569.63,147.302 559.614,121.423 556.22,114.424 L 549.293,100.095 C 548.305,98.0414 547.703,97.4093 546.742,95.5601 L 536.094,77.8607 C 545.29,73.0102 559.437,63.4553 567.239,57.2362 L 581.539,45.3004 C 586.257,41.7105 590.396,35.6528 595.029,32.5595 C 597.979,34.5283 613.124,56.8508 614.201,60.8729 C 595.749,69.6987 570.888,66.1891 570.888,82.8158 M 500.592,74.3219 C 500.592,87.3011 508.314,85.6692 511.776,89.3618 C 520.085,98.2219 533.509,126.567 537.516,136.609 C 539.788,142.302 541.978,148.157 543.995,154.216 C 546.604,162.048 553.388,183.355 554.518,191.858 C 555.051,195.862 555.851,197.94 558.289,200.132 C 569.987,210.649 585.804,194.655 596.45,191.821 C 596.506,194.34 596.778,194.137 596.916,195.957 L 596.929,203.936 C 596.886,206.527 594.921,211.244 599.874,216.721 C 606.151,223.661 616.478,220.303 625.845,218.293 C 631.73,217.031 636.602,215.805 642.41,214.279 C 655.03,210.963 674.548,202.412 685.917,196.777 L 705.232,185.594 C 718.96,176.411 720.0,177.578 720.0,163.508 C 720.0,139.999 717.431,116.272 712.466,94.5719 C 708.036,75.2081 701.136,54.1714 690.47,37.9301 C 677.875,18.7519 671.997,31.7854 653.03,42.2464 C 648.814,44.5714 643.421,48.9112 637.633,50.2555 C 636.824,46.7969 627.911,32.9198 624.953,28.9203 L 619.874,21.9496 C 615.964,16.8758 603.042,0.0 595.739,0.0 C 588.378,0.0 586.188,3.47031 582.739,7.56679 C 568.27,24.7461 549.709,39.5269 530.543,51.0923 C 516.266,59.7075 500.592,63.6936 500.592,74.3219" fill="#000000"/></g>
<g id="favicon-dark"><path fill-rule="evenodd" clip-rule="evenodd" d="M 604.97,90.6017 C 613.331,90.4161 640.707,78.0698 649.709,73.6188 C 652.741,72.1207 654.728,70.7471 657.993,69.1369 C 660.928,67.6898 662.852,66.3856 665.633,64.7186 C 667.971,63.3166 671.52,60.7843 673.846,60.1648 C 674.174,61.5668 682.683,80.9482 686.494,96.3969 C 689.076,106.86 693.017,128.493 693.017,139.442 C 690.896,139.934 672.735,152.908 669.161,155.298 C 642.211,173.315 624.764,173.517 622.012,174.833 C 622.012,167.055 617.85,137.118 616.413,130.158 L 608.254,100.07 C 607.656,98.2654 607.268,97.0281 606.596,95.3519 C 605.944,93.7258 605.516,91.8181 604.97,90.6017 M 570.888,82.8158 C 570.888,86.511 571.258,88.4347 573.996,91.7487 C 578.58,97.2956 576.689,90.2689 582.049,103.541 C 585.269,111.511 592.189,136.588 592.189,143.689 C 592.189,144.79 588.786,146.684 587.901,147.199 C 578.39,152.733 579.252,151.684 571.597,155.722 C 569.63,147.302 559.614,121.423 556.22,114.424 L 549.293,100.095 C 548.305,98.0414 547.703,97.4093 546.742,95.5601 L 536.094,77.8607 C 545.29,73.0102 559.437,63.4553 567.239,57.2362 L 581.539,45.3004 C 586.257,41.7105 590.396,35.6528 595.029,32.5595 C 597.979,34.5283 613.124,56.8508 614.201,60.8729 C 595.749,69.6987 570.888,66.1891 570.888,82.8158 M 500.592,74.3219 C 500.592,87.3011 508.314,85.6692 511.776,89.3618 C 520.085,98.2219 533.509,126.567 537.516,136.609 C 539.788,142.302 541.978,148.157 543.995,154.216 C 546.604,162.048 553.388,183.355 554.518,191.858 C 555.051,195.862 555.851,197.94 558.289,200.132 C 569.987,210.649 585.804,194.655 596.45,191.821 C 596.506,194.34 596.778,194.137 596.916,195.957 L 596.929,203.936 C 596.886,206.527 594.921,211.244 599.874,216.721 C 606.151,223.661 616.478,220.303 625.845,218.293 C 631.73,217.031 636.602,215.805 642.41,214.279 C 655.03,210.963 674.548,202.412 685.917,196.777 L 705.232,185.594 C 718.96,176.411 720.0,177.578 720.0,163.508 C 720.0,139.999 717.431,116.272 712.466,94.5719 C 708.036,75.2081 701.136,54.1714 690.47,37.9301 C 677.875,18.7519 671.997,31.7854 653.03,42.2464 C 648.814,44.5714 643.421,48.9112 637.633,50.2555 C 636.824,46.7969 627.911,32.9198 624.953,28.9203 L 619.874,21.9496 C 615.964,16.8758 603.042,0.0 595.739,0.0 C 588.378,0.0 586.188,3.47031 582.739,7.56679 C 568.27,24.7461 549.709,39.5269 530.543,51.0923 C 516.266,59.7075 500.592,63.6936 500.592,74.3219" fill="#ffffff"/></g>
</svg>